<svg version="1.1" xmlns="http://www.w3.org/2000/svg" xmlns:xlink="http://www.w3.org/1999/xlink" width="969.4599609375" height="771"><defs/><g><text fill="#eeeeee" stroke="none" font-family="Arial" font-size="24px" font-style="normal" font-weight="normal" text-decoration="none" x="0" y="0">UNREGISTERED</text><text fill="#eeeeee" stroke="none" font-family="Arial" font-size="24px" font-style="normal" font-weight="normal" text-decoration="none" x="0" y="30">UNREGISTERED</text><text fill="#eeeeee" stroke="none" font-family="Arial" font-size="24px" font-style="normal" font-weight="normal" text-decoration="none" x="0" y="60">UNREGISTERED</text><text fill="#eeeeee" stroke="none" font-family="Arial" font-size="24px" font-style="normal" font-weight="normal" text-decoration="none" x="0" y="90">UNREGISTERED</text><text fill="#eeeeee" stroke="none" font-family="Arial" font-size="24px" font-style="normal" font-weight="normal" text-decoration="none" x="0" y="120">UNREGISTERED</text><text fill="#eeeeee" stroke="none" font-family="Arial" font-size="24px" font-style="normal" font-weight="normal" text-decoration="none" x="0" y="150">UNREGISTERED</text><text fill="#eeeeee" stroke="none" font-family="Arial" font-size="24px" font-style="normal" font-weight="normal" text-decoration="none" x="0" y="180">UNREGISTERED</text><text fill="#eeeeee" stroke="none" font-family="Arial" font-size="24px" font-style="normal" font-weight="normal" text-decoration="none" x="0" y="210">UNREGISTERED</text><text fill="#eeeeee" stroke="none" font-family="Arial" font-size="24px" font-style="normal" font-weight="normal" text-decoration="none" x="0" y="240">UNREGISTERED</text><text fill="#eeeeee" stroke="none" font-family="Arial" font-size="24px" font-style="normal" font-weight="normal" text-decoration="none" x="0" y="270">UNREGISTERED</text><text fill="#eeeeee" stroke="none" font-family="Arial" font-size="24px" font-style="normal" font-weight="normal" text-decoration="none" x="0" y="300">UNREGISTERED</text><text fill="#eeeeee" stroke="none" font-family="Arial" font-size="24px" font-style="normal" font-weight="normal" text-decoration="none" x="0" y="330">UNREGISTERED</text><text fill="#eeeeee" stroke="none" font-family="Arial" font-size="24px" font-style="normal" font-weight="normal" text-decoration="none" x="0" y="360">UNREGISTERED</text><text fill="#eeeeee" stroke="none" font-family="Arial" font-size="24px" font-style="normal" font-weight="normal" text-decoration="none" x="0" y="390">UNREGISTERED</text><text fill="#eeeeee" stroke="none" font-family="Arial" font-size="24px" font-style="normal" font-weight="normal" text-decoration="none" x="0" y="420">UNREGISTERED</text><text fill="#eeeeee" stroke="none" font-family="Arial" font-size="24px" font-style="normal" font-weight="normal" text-decoration="none" x="0" y="450">UNREGISTERED</text><text fill="#eeeeee" stroke="none" font-family="Arial" font-size="24px" font-style="normal" font-weight="normal" text-decoration="none" x="0" y="480">UNREGISTERED</text><text fill="#eeeeee" stroke="none" font-family="Arial" font-size="24px" font-style="normal" font-weight="normal" text-decoration="none" x="0" y="510">UNREGISTERED</text><text fill="#eeeeee" stroke="none" font-family="Arial" font-size="24px" font-style="normal" font-weight="normal" text-decoration="none" x="0" y="540">UNREGISTERED</text><text fill="#eeeeee" stroke="none" font-family="Arial" font-size="24px" font-style="normal" font-weight="normal" text-decoration="none" x="0" y="570">UNREGISTERED</text><text fill="#eeeeee" stroke="none" font-family="Arial" font-size="24px" font-style="normal" font-weight="normal" text-decoration="none" x="0" y="600">UNREGISTERED</text><text fill="#eeeeee" stroke="none" font-family="Arial" font-size="24px" font-style="normal" font-weight="normal" text-decoration="none" x="0" y="630">UNREGISTERED</text><text fill="#eeeeee" stroke="none" font-family="Arial" font-size="24px" font-style="normal" font-weight="normal" text-decoration="none" x="0" y="660">UNREGISTERED</text><text fill="#eeeeee" stroke="none" font-family="Arial" font-size="24px" font-style="normal" font-weight="normal" text-decoration="none" x="0" y="690">UNREGISTERED</text><text fill="#eeeeee" stroke="none" font-family="Arial" font-size="24px" font-style="normal" font-weight="normal" text-decoration="none" x="0" y="720">UNREGISTERED</text><text fill="#eeeeee" stroke="none" font-family="Arial" font-size="24px" font-style="normal" font-weight="normal" text-decoration="none" x="0" y="750">UNREGISTERED</text><text fill="#eeeeee" stroke="none" font-family="Arial" font-size="24px" font-style="normal" font-weight="normal" text-decoration="none" x="200" y="0">UNREGISTERED</text><text fill="#eeeeee" stroke="none" font-family="Arial" font-size="24px" font-style="normal" font-weight="normal" text-decoration="none" x="200" y="30">UNREGISTERED</text><text fill="#eeeeee" stroke="none" font-family="Arial" font-size="24px" font-style="normal" font-weight="normal" text-decoration="none" x="200" y="60">UNREGISTERED</text><text fill="#eeeeee" stroke="none" font-family="Arial" font-size="24px" font-style="normal" font-weight="normal" text-decoration="none" x="200" y="90">UNREGISTERED</text><text fill="#eeeeee" stroke="none" font-family="Arial" font-size="24px" font-style="normal" font-weight="normal" text-decoration="none" x="200" y="120">UNREGISTERED</text><text fill="#eeeeee" stroke="none" font-family="Arial" font-size="24px" font-style="normal" font-weight="normal" text-decoration="none" x="200" y="150">UNREGISTERED</text><text fill="#eeeeee" stroke="none" font-family="Arial" font-size="24px" font-style="normal" font-weight="normal" text-decoration="none" x="200" y="180">UNREGISTERED</text><text fill="#eeeeee" stroke="none" font-family="Arial" font-size="24px" font-style="normal" font-weight="normal" text-decoration="none" x="200" y="210">UNREGISTERED</text><text fill="#eeeeee" stroke="none" font-family="Arial" font-size="24px" font-style="normal" font-weight="normal" text-decoration="none" x="200" y="240">UNREGISTERED</text><text fill="#eeeeee" stroke="none" font-family="Arial" font-size="24px" font-style="normal" font-weight="normal" text-decoration="none" x="200" y="270">UNREGISTERED</text><text fill="#eeeeee" stroke="none" font-family="Arial" font-size="24px" font-style="normal" font-weight="normal" text-decoration="none" x="200" y="300">UNREGISTERED</text><text fill="#eeeeee" stroke="none" font-family="Arial" font-size="24px" font-style="normal" font-weight="normal" text-decoration="none" x="200" y="330">UNREGISTERED</text><text fill="#eeeeee" stroke="none" font-family="Arial" font-size="24px" font-style="normal" font-weight="normal" text-decoration="none" x="200" y="360">UNREGISTERED</text><text fill="#eeeeee" stroke="none" font-family="Arial" font-size="24px" font-style="normal" font-weight="normal" text-decoration="none" x="200" y="390">UNREGISTERED</text><text fill="#eeeeee" stroke="none" font-family="Arial" font-size="24px" font-style="normal" font-weight="normal" text-decoration="none" x="200" y="420">UNREGISTERED</text><text fill="#eeeeee" stroke="none" font-family="Arial" font-size="24px" font-style="normal" font-weight="normal" text-decoration="none" x="200" y="450">UNREGISTERED</text><text fill="#eeeeee" stroke="none" font-family="Arial" font-size="24px" font-style="normal" font-weight="normal" text-decoration="none" x="200" y="480">UNREGISTERED</text><text fill="#eeeeee" stroke="none" font-family="Arial" font-size="24px" font-style="normal" font-weight="normal" text-decoration="none" x="200" y="510">UNREGISTERED</text><text fill="#eeeeee" stroke="none" font-family="Arial" font-size="24px" font-style="normal" font-weight="normal" text-decoration="none" x="200" y="540">UNREGISTERED</text><text fill="#eeeeee" stroke="none" font-family="Arial" font-size="24px" font-style="normal" font-weight="normal" text-decoration="none" x="200" y="570">UNREGISTERED</text><text fill="#eeeeee" stroke="none" font-family="Arial" font-size="24px" font-style="normal" font-weight="normal" text-decoration="none" x="200" y="600">UNREGISTERED</text><text fill="#eeeeee" stroke="none" font-family="Arial" font-size="24px" font-style="normal" font-weight="normal" text-decoration="none" x="200" y="630">UNREGISTERED</text><text fill="#eeeeee" stroke="none" font-family="Arial" font-size="24px" font-style="normal" font-weight="normal" text-decoration="none" x="200" y="660">UNREGISTERED</text><text fill="#eeeeee" stroke="none" font-family="Arial" font-size="24px" font-style="normal" font-weight="normal" text-decoration="none" x="200" y="690">UNREGISTERED</text><text fill="#eeeeee" stroke="none" font-family="Arial" font-size="24px" font-style="normal" font-weight="normal" text-decoration="none" x="200" y="720">UNREGISTERED</text><text fill="#eeeeee" stroke="none" font-family="Arial" font-size="24px" font-style="normal" font-weight="normal" text-decoration="none" x="200" y="750">UNREGISTERED</text><text fill="#eeeeee" stroke="none" font-family="Arial" font-size="24px" font-style="normal" font-weight="normal" text-decoration="none" x="400" y="0">UNREGISTERED</text><text fill="#eeeeee" stroke="none" font-family="Arial" font-size="24px" font-style="normal" font-weight="normal" text-decoration="none" x="400" y="30">UNREGISTERED</text><text fill="#eeeeee" stroke="none" font-family="Arial" font-size="24px" font-style="normal" font-weight="normal" text-decoration="none" x="400" y="60">UNREGISTERED</text><text fill="#eeeeee" stroke="none" font-family="Arial" font-size="24px" font-style="normal" font-weight="normal" text-decoration="none" x="400" y="90">UNREGISTERED</text><text fill="#eeeeee" stroke="none" font-family="Arial" font-size="24px" font-style="normal" font-weight="normal" text-decoration="none" x="400" y="120">UNREGISTERED</text><text fill="#eeeeee" stroke="none" font-family="Arial" font-size="24px" font-style="normal" font-weight="normal" text-decoration="none" x="400" y="150">UNREGISTERED</text><text fill="#eeeeee" stroke="none" font-family="Arial" font-size="24px" font-style="normal" font-weight="normal" text-decoration="none" x="400" y="180">UNREGISTERED</text><text fill="#eeeeee" stroke="none" font-family="Arial" font-size="24px" font-style="normal" font-weight="normal" text-decoration="none" x="400" y="210">UNREGISTERED</text><text fill="#eeeeee" stroke="none" font-family="Arial" font-size="24px" font-style="normal" font-weight="normal" text-decoration="none" x="400" y="240">UNREGISTERED</text><text fill="#eeeeee" stroke="none" font-family="Arial" font-size="24px" font-style="normal" font-weight="normal" text-decoration="none" x="400" y="270">UNREGISTERED</text><text fill="#eeeeee" stroke="none" font-family="Arial" font-size="24px" font-style="normal" font-weight="normal" text-decoration="none" x="400" y="300">UNREGISTERED</text><text fill="#eeeeee" stroke="none" font-family="Arial" font-size="24px" font-style="normal" font-weight="normal" text-decoration="none" x="400" y="330">UNREGISTERED</text><text fill="#eeeeee" stroke="none" font-family="Arial" font-size="24px" font-style="normal" font-weight="normal" text-decoration="none" x="400" y="360">UNREGISTERED</text><text fill="#eeeeee" stroke="none" font-family="Arial" font-size="24px" font-style="normal" font-weight="normal" text-decoration="none" x="400" y="390">UNREGISTERED</text><text fill="#eeeeee" stroke="none" font-family="Arial" font-size="24px" font-style="normal" font-weight="normal" text-decoration="none" x="400" y="420">UNREGISTERED</text><text fill="#eeeeee" stroke="none" font-family="Arial" font-size="24px" font-style="normal" font-weight="normal" text-decoration="none" x="400" y="450">UNREGISTERED</text><text fill="#eeeeee" stroke="none" font-family="Arial" font-size="24px" font-style="normal" font-weight="normal" text-decoration="none" x="400" y="480">UNREGISTERED</text><text fill="#eeeeee" stroke="none" font-family="Arial" font-size="24px" font-style="normal" font-weight="normal" text-decoration="none" x="400" y="510">UNREGISTERED</text><text fill="#eeeeee" stroke="none" font-family="Arial" font-size="24px" font-style="normal" font-weight="normal" text-decoration="none" x="400" y="540">UNREGISTERED</text><text fill="#eeeeee" stroke="none" font-family="Arial" font-size="24px" font-style="normal" font-weight="normal" text-decoration="none" x="400" y="570">UNREGISTERED</text><text fill="#eeeeee" stroke="none" font-family="Arial" font-size="24px" font-style="normal" font-weight="normal" text-decoration="none" x="400" y="600">UNREGISTERED</text><text fill="#eeeeee" stroke="none" font-family="Arial" font-size="24px" font-style="normal" font-weight="normal" text-decoration="none" x="400" y="630">UNREGISTERED</text><text fill="#eeeeee" stroke="none" font-family="Arial" font-size="24px" font-style="normal" font-weight="normal" text-decoration="none" x="400" y="660">UNREGISTERED</text><text fill="#eeeeee" stroke="none" font-family="Arial" font-size="24px" font-style="normal" font-weight="normal" text-decoration="none" x="400" y="690">UNREGISTERED</text><text fill="#eeeeee" stroke="none" font-family="Arial" font-size="24px" font-style="normal" font-weight="normal" text-decoration="none" x="400" y="720">UNREGISTERED</text><text fill="#eeeeee" stroke="none" font-family="Arial" font-size="24px" font-style="normal" font-weight="normal" text-decoration="none" x="400" y="750">UNREGISTERED</text><text fill="#eeeeee" stroke="none" font-family="Arial" font-size="24px" font-style="normal" font-weight="normal" text-decoration="none" x="600" y="0">UNREGISTERED</text><text fill="#eeeeee" stroke="none" font-family="Arial" font-size="24px" font-style="normal" font-weight="normal" text-decoration="none" x="600" y="30">UNREGISTERED</text><text fill="#eeeeee" stroke="none" font-family="Arial" font-size="24px" font-style="normal" font-weight="normal" text-decoration="none" x="600" y="60">UNREGISTERED</text><text fill="#eeeeee" stroke="none" font-family="Arial" font-size="24px" font-style="normal" font-weight="normal" text-decoration="none" x="600" y="90">UNREGISTERED</text><text fill="#eeeeee" stroke="none" font-family="Arial" font-size="24px" font-style="normal" font-weight="normal" text-decoration="none" x="600" y="120">UNREGISTERED</text><text fill="#eeeeee" stroke="none" font-family="Arial" font-size="24px" font-style="normal" font-weight="normal" text-decoration="none" x="600" y="150">UNREGISTERED</text><text fill="#eeeeee" stroke="none" font-family="Arial" font-size="24px" font-style="normal" font-weight="normal" text-decoration="none" x="600" y="180">UNREGISTERED</text><text fill="#eeeeee" stroke="none" font-family="Arial" font-size="24px" font-style="normal" font-weight="normal" text-decoration="none" x="600" y="210">UNREGISTERED</text><text fill="#eeeeee" stroke="none" font-family="Arial" font-size="24px" font-style="normal" font-weight="normal" text-decoration="none" x="600" y="240">UNREGISTERED</text><text fill="#eeeeee" stroke="none" font-family="Arial" font-size="24px" font-style="normal" font-weight="normal" text-decoration="none" x="600" y="270">UNREGISTERED</text><text fill="#eeeeee" stroke="none" font-family="Arial" font-size="24px" font-style="normal" font-weight="normal" text-decoration="none" x="600" y="300">UNREGISTERED</text><text fill="#eeeeee" stroke="none" font-family="Arial" font-size="24px" font-style="normal" font-weight="normal" text-decoration="none" x="600" y="330">UNREGISTERED</text><text fill="#eeeeee" stroke="none" font-family="Arial" font-size="24px" font-style="normal" font-weight="normal" text-decoration="none" x="600" y="360">UNREGISTERED</text><text fill="#eeeeee" stroke="none" font-family="Arial" font-size="24px" font-style="normal" font-weight="normal" text-decoration="none" x="600" y="390">UNREGISTERED</text><text fill="#eeeeee" stroke="none" font-family="Arial" font-size="24px" font-style="normal" font-weight="normal" text-decoration="none" x="600" y="420">UNREGISTERED</text><text fill="#eeeeee" stroke="none" font-family="Arial" font-size="24px" font-style="normal" font-weight="normal" text-decoration="none" x="600" y="450">UNREGISTERED</text><text fill="#eeeeee" stroke="none" font-family="Arial" font-size="24px" font-style="normal" font-weight="normal" text-decoration="none" x="600" y="480">UNREGISTERED</text><text fill="#eeeeee" stroke="none" font-family="Arial" font-size="24px" font-style="normal" font-weight="normal" text-decoration="none" x="600" y="510">UNREGISTERED</text><text fill="#eeeeee" stroke="none" font-family="Arial" font-size="24px" font-style="normal" font-weight="normal" text-decoration="none" x="600" y="540">UNREGISTERED</text><text fill="#eeeeee" stroke="none" font-family="Arial" font-size="24px" font-style="normal" font-weight="normal" text-decoration="none" x="600" y="570">UNREGISTERED</text><text fill="#eeeeee" stroke="none" font-family="Arial" font-size="24px" font-style="normal" font-weight="normal" text-decoration="none" x="600" y="600">UNREGISTERED</text><text fill="#eeeeee" stroke="none" font-family="Arial" font-size="24px" font-style="normal" font-weight="normal" text-decoration="none" x="600" y="630">UNREGISTERED</text><text fill="#eeeeee" stroke="none" font-family="Arial" font-size="24px" font-style="normal" font-weight="normal" text-decoration="none" x="600" y="660">UNREGISTERED</text><text fill="#eeeeee" stroke="none" font-family="Arial" font-size="24px" font-style="normal" font-weight="normal" text-decoration="none" x="600" y="690">UNREGISTERED</text><text fill="#eeeeee" stroke="none" font-family="Arial" font-size="24px" font-style="normal" font-weight="normal" text-decoration="none" x="600" y="720">UNREGISTERED</text><text fill="#eeeeee" stroke="none" font-family="Arial" font-size="24px" font-style="normal" font-weight="normal" text-decoration="none" x="600" y="750">UNREGISTERED</text><text fill="#eeeeee" stroke="none" font-family="Arial" font-size="24px" font-style="normal" font-weight="normal" text-decoration="none" x="800" y="0">UNREGISTERED</text><text fill="#eeeeee" stroke="none" font-family="Arial" font-size="24px" font-style="normal" font-weight="normal" text-decoration="none" x="800" y="30">UNREGISTERED</text><text fill="#eeeeee" stroke="none" font-family="Arial" font-size="24px" font-style="normal" font-weight="normal" text-decoration="none" x="800" y="60">UNREGISTERED</text><text fill="#eeeeee" stroke="none" font-family="Arial" font-size="24px" font-style="normal" font-weight="normal" text-decoration="none" x="800" y="90">UNREGISTERED</text><text fill="#eeeeee" stroke="none" font-family="Arial" font-size="24px" font-style="normal" font-weight="normal" text-decoration="none" x="800" y="120">UNREGISTERED</text><text fill="#eeeeee" stroke="none" font-family="Arial" font-size="24px" font-style="normal" font-weight="normal" text-decoration="none" x="800" y="150">UNREGISTERED</text><text fill="#eeeeee" stroke="none" font-family="Arial" font-size="24px" font-style="normal" font-weight="normal" text-decoration="none" x="800" y="180">UNREGISTERED</text><text fill="#eeeeee" stroke="none" font-family="Arial" font-size="24px" font-style="normal" font-weight="normal" text-decoration="none" x="800" y="210">UNREGISTERED</text><text fill="#eeeeee" stroke="none" font-family="Arial" font-size="24px" font-style="normal" font-weight="normal" text-decoration="none" x="800" y="240">UNREGISTERED</text><text fill="#eeeeee" stroke="none" font-family="Arial" font-size="24px" font-style="normal" font-weight="normal" text-decoration="none" x="800" y="270">UNREGISTERED</text><text fill="#eeeeee" stroke="none" font-family="Arial" font-size="24px" font-style="normal" font-weight="normal" text-decoration="none" x="800" y="300">UNREGISTERED</text><text fill="#eeeeee" stroke="none" font-family="Arial" font-size="24px" font-style="normal" font-weight="normal" text-decoration="none" x="800" y="330">UNREGISTERED</text><text fill="#eeeeee" stroke="none" font-family="Arial" font-size="24px" font-style="normal" font-weight="normal" text-decoration="none" x="800" y="360">UNREGISTERED</text><text fill="#eeeeee" stroke="none" font-family="Arial" font-size="24px" font-style="normal" font-weight="normal" text-decoration="none" x="800" y="390">UNREGISTERED</text><text fill="#eeeeee" stroke="none" font-family="Arial" font-size="24px" font-style="normal" font-weight="normal" text-decoration="none" x="800" y="420">UNREGISTERED</text><text fill="#eeeeee" stroke="none" font-family="Arial" font-size="24px" font-style="normal" font-weight="normal" text-decoration="none" x="800" y="450">UNREGISTERED</text><text fill="#eeeeee" stroke="none" font-family="Arial" font-size="24px" font-style="normal" font-weight="normal" text-decoration="none" x="800" y="480">UNREGISTERED</text><text fill="#eeeeee" stroke="none" font-family="Arial" font-size="24px" font-style="normal" font-weight="normal" text-decoration="none" x="800" y="510">UNREGISTERED</text><text fill="#eeeeee" stroke="none" font-family="Arial" font-size="24px" font-style="normal" font-weight="normal" text-decoration="none" x="800" y="540">UNREGISTERED</text><text fill="#eeeeee" stroke="none" font-family="Arial" font-size="24px" font-style="normal" font-weight="normal" text-decoration="none" x="800" y="570">UNREGISTERED</text><text fill="#eeeeee" stroke="none" font-family="Arial" font-size="24px" font-style="normal" font-weight="normal" text-decoration="none" x="800" y="600">UNREGISTERED</text><text fill="#eeeeee" stroke="none" font-family="Arial" font-size="24px" font-style="normal" font-weight="normal" text-decoration="none" x="800" y="630">UNREGISTERED</text><text fill="#eeeeee" stroke="none" font-family="Arial" font-size="24px" font-style="normal" font-weight="normal" text-decoration="none" x="800" y="660">UNREGISTERED</text><text fill="#eeeeee" stroke="none" font-family="Arial" font-size="24px" font-style="normal" font-weight="normal" text-decoration="none" x="800" y="690">UNREGISTERED</text><text fill="#eeeeee" stroke="none" font-family="Arial" font-size="24px" font-style="normal" font-weight="normal" text-decoration="none" x="800" y="720">UNREGISTERED</text><text fill="#eeeeee" stroke="none" font-family="Arial" font-size="24px" font-style="normal" font-weight="normal" text-decoration="none" x="800" y="750">UNREGISTERED</text><g transform="translate(-150,-78) scale(1,1)"><rect fill="#C0C0C0" stroke="none" x="271" y="95" width="704" height="751" opacity="0.2"/></g><g transform="translate(-150,-78) scale(1,1)"><rect fill="#ffffff" stroke="none" x="264" y="88" width="704" height="751"/></g><g transform="translate(-150,-78) scale(1,1)"><path fill="none" stroke="#000000" d="M 264 88 L 968 88 L 968 839 L 264 839 L 264 88 Z Z" stroke-miterlimit="10"/></g><g transform="translate(-150,-78) scale(1,1)"><g><path fill="none" stroke="none"/><text fill="#000000" stroke="none" font-family="Arial" font-size="13px" font-style="normal" font-weight="bold" text-decoration="none" x="542.306884765625" y="107.5">Site e-commerce épicerie</text></g></g><g transform="translate(-150,-78) scale(1,1)"><path fill="#ffffff" stroke="none" d="M 176.40935031960228 481.68 C 176.40935031960228 476.886167936 180.29519264454774 473 185.088623046875 473 C 189.88205344920226 473 193.76789577414772 476.886167936 193.76789577414772 481.68 C 193.76789577414772 486.473832064 189.88205344920226 490.36 185.088623046875 490.36 C 180.29519264454774 490.36 176.40935031960228 486.473832064 176.40935031960228 481.68 Z"/></g><g transform="translate(-150,-78) scale(1,1)"><path fill="none" stroke="#000000" d="M 176.40935031960228 481.68 C 176.40935031960228 476.886167936 180.29519264454774 473 185.088623046875 473 C 189.88205344920226 473 193.76789577414772 476.886167936 193.76789577414772 481.68 C 193.76789577414772 486.473832064 189.88205344920226 490.36 185.088623046875 490.36 C 180.29519264454774 490.36 176.40935031960228 486.473832064 176.40935031960228 481.68 Z" stroke-miterlimit="10"/></g><g transform="translate(-150,-78) scale(1,1)"><path fill="none" stroke="#000000" d="M 185.088623046875 490.36 L 185.088623046875 507.64" stroke-miterlimit="10"/></g><g transform="translate(-150,-78) scale(1,1)"><path fill="none" stroke="#000000" d="M 175.89880486505683 496.84 L 194.27844122869317 496.84" stroke-miterlimit="10"/></g><g transform="translate(-150,-78) scale(1,1)"><path fill="none" stroke="#000000" d="M 185.088623046875 507.64 L 172.32498668323865 525" stroke-miterlimit="10"/></g><g transform="translate(-150,-78) scale(1,1)"><path fill="none" stroke="#000000" d="M 185.088623046875 507.64 L 197.85225941051135 525" stroke-miterlimit="10"/></g><g transform="translate(-150,-78) scale(1,1)"><g><path fill="none" stroke="none"/><text fill="#000000" stroke="none" font-family="Arial" font-size="13px" font-style="normal" font-weight="bold" text-decoration="none" x="168.470458984375" y="545.5">Client</text></g></g><g transform="translate(-150,-78) scale(1,1)"><path fill="#ffffff" stroke="none" d="M 179.54509250710228 265.68 C 179.54509250710228 260.886167936 183.43093483204774 257 188.224365234375 257 C 193.01779563670226 257 196.90363796164772 260.886167936 196.90363796164772 265.68 C 196.90363796164772 270.473832064 193.01779563670226 274.36 188.224365234375 274.36 C 183.43093483204774 274.36 179.54509250710228 270.473832064 179.54509250710228 265.68 Z"/></g><g transform="translate(-150,-78) scale(1,1)"><path fill="none" stroke="#000000" d="M 179.54509250710228 265.68 C 179.54509250710228 260.886167936 183.43093483204774 257 188.224365234375 257 C 193.01779563670226 257 196.90363796164772 260.886167936 196.90363796164772 265.68 C 196.90363796164772 270.473832064 193.01779563670226 274.36 188.224365234375 274.36 C 183.43093483204774 274.36 179.54509250710228 270.473832064 179.54509250710228 265.68 Z" stroke-miterlimit="10"/></g><g transform="translate(-150,-78) scale(1,1)"><path fill="none" stroke="#000000" d="M 188.224365234375 274.36 L 188.224365234375 291.64" stroke-miterlimit="10"/></g><g transform="translate(-150,-78) scale(1,1)"><path fill="none" stroke="#000000" d="M 179.03454705255683 280.84 L 197.41418341619317 280.84" stroke-miterlimit="10"/></g><g transform="translate(-150,-78) scale(1,1)"><path fill="none" stroke="#000000" d="M 188.224365234375 291.64 L 175.46072887073865 309" stroke-miterlimit="10"/></g><g transform="translate(-150,-78) scale(1,1)"><path fill="none" stroke="#000000" d="M 188.224365234375 291.64 L 200.98800159801135 309" stroke-miterlimit="10"/></g><g transform="translate(-150,-78) scale(1,1)"><g><path fill="none" stroke="none"/><text fill="#000000" stroke="none" font-family="Arial" font-size="13px" font-style="normal" font-weight="bold" text-decoration="none" x="166.667724609375" y="329.5">Visiteur</text></g></g><g transform="translate(-150,-78) scale(1,1)"><path fill="#ffffff" stroke="none" d="M 1050.0507077414773 385.68 C 1050.0507077414773 380.886167936 1053.9365500664228 377 1058.72998046875 377 C 1063.5234108710772 377 1067.4092531960227 380.886167936 1067.4092531960227 385.68 C 1067.4092531960227 390.473832064 1063.5234108710772 394.36 1058.72998046875 394.36 C 1053.9365500664228 394.36 1050.0507077414773 390.473832064 1050.0507077414773 385.68 Z"/></g><g transform="translate(-150,-78) scale(1,1)"><path fill="none" stroke="#000000" d="M 1050.0507077414773 385.68 C 1050.0507077414773 380.886167936 1053.9365500664228 377 1058.72998046875 377 C 1063.5234108710772 377 1067.4092531960227 380.886167936 1067.4092531960227 385.68 C 1067.4092531960227 390.473832064 1063.5234108710772 394.36 1058.72998046875 394.36 C 1053.9365500664228 394.36 1050.0507077414773 390.473832064 1050.0507077414773 385.68 Z" stroke-miterlimit="10"/></g><g transform="translate(-150,-78) scale(1,1)"><path fill="none" stroke="#000000" d="M 1058.72998046875 394.36 L 1058.72998046875 411.64" stroke-miterlimit="10"/></g><g transform="translate(-150,-78) scale(1,1)"><path fill="none" stroke="#000000" d="M 1049.5401622869317 400.84 L 1067.9197986505683 400.84" stroke-miterlimit="10"/></g><g transform="translate(-150,-78) scale(1,1)"><path fill="none" stroke="#000000" d="M 1058.72998046875 411.64 L 1045.9663441051136 429" stroke-miterlimit="10"/></g><g transform="translate(-150,-78) scale(1,1)"><path fill="none" stroke="#000000" d="M 1058.72998046875 411.64 L 1071.4936168323864 429" stroke-miterlimit="10"/></g><g transform="translate(-150,-78) scale(1,1)"><g><path fill="none" stroke="none"/><text fill="#000000" stroke="none" font-family="Arial" font-size="13px" font-style="normal" font-weight="bold" text-decoration="none" x="1016.825927734375" y="449.5">Administrateur</text></g></g><g transform="translate(-150,-78) scale(1,1)"><path fill="none" stroke="#000000" d="M 186 471 L 187 336" stroke-miterlimit="10"/></g><g transform="translate(-150,-78) scale(1,1)"><path fill="#FFFFFF" stroke="none" d="M 195.26825053095564 356.3871536305918 L 187 336 L 178.43064143770462 356.2624306002714"/></g><g transform="translate(-150,-78) scale(1,1)"><path fill="none" stroke="#000000" d="M 195.26825053095564 356.3871536305918 L 187 336 L 178.43064143770462 356.2624306002714 L 195.26825053095564 356.3871536305918" stroke-miterlimit="10"/></g><g transform="translate(-150,-78) scale(1,1)"><path fill="#C0C0C0" stroke="none" d="M 519 400 C 519 390.6111584 550.7877792 383 590 383 C 629.2122208 383 661 390.6111584 661 400 C 661 409.3888416 629.2122208 417 590 417 C 550.7877792 417 519 409.3888416 519 400 Z" opacity="0.2"/></g><g transform="translate(-150,-78) scale(1,1)"><path fill="#ffffff" stroke="none" d="M 512 393 C 512 383.6111584 543.7877792 376 583 376 C 622.2122208 376 654 383.6111584 654 393 C 654 402.3888416 622.2122208 410 583 410 C 543.7877792 410 512 402.3888416 512 393 Z"/></g><g transform="translate(-150,-78) scale(1,1)"><path fill="none" stroke="#000000" d="M 512 393 C 512 383.6111584 543.7877792 376 583 376 C 622.2122208 376 654 383.6111584 654 393 C 654 402.3888416 622.2122208 410 583 410 C 543.7877792 410 512 402.3888416 512 393 Z" stroke-miterlimit="10"/></g><g transform="translate(-150,-78) scale(1,1)"><g><path fill="none" stroke="none"/><text fill="#000000" stroke="none" font-family="Arial" font-size="13px" font-style="normal" font-weight="bold" text-decoration="none" x="539.6455078125" y="400">Gérer le panier</text></g></g><g transform="translate(-150,-78) scale(1,1)"><path fill="#C0C0C0" stroke="none" d="M 383 760 C 383 750.6111584 421.055792 743 468 743 C 514.944208 743 553 750.6111584 553 760 C 553 769.3888416 514.944208 777 468 777 C 421.055792 777 383 769.3888416 383 760 Z" opacity="0.2"/></g><g transform="translate(-150,-78) scale(1,1)"><path fill="#ffffff" stroke="none" d="M 376 753 C 376 743.6111584 414.055792 736 461 736 C 507.944208 736 546 743.6111584 546 753 C 546 762.3888416 507.944208 770 461 770 C 414.055792 770 376 762.3888416 376 753 Z"/></g><g transform="translate(-150,-78) scale(1,1)"><path fill="none" stroke="#000000" d="M 376 753 C 376 743.6111584 414.055792 736 461 736 C 507.944208 736 546 743.6111584 546 753 C 546 762.3888416 507.944208 770 461 770 C 414.055792 770 376 762.3888416 376 753 Z" stroke-miterlimit="10"/></g><g transform="translate(-150,-78) scale(1,1)"><g><path fill="none" stroke="none"/><text fill="#000000" stroke="none" font-family="Arial" font-size="13px" font-style="normal" font-weight="bold" text-decoration="none" x="408.977783203125" y="760">Gérer son compte</text></g></g><g transform="translate(-150,-78) scale(1,1)"><path fill="#C0C0C0" stroke="none" d="M 391 552 C 391 542.6111584 438.6816688 535 497.5 535 C 556.3183312 535 604 542.6111584 604 552 C 604 561.3888416 556.3183312 569 497.5 569 C 438.6816688 569 391 561.3888416 391 552 Z" opacity="0.2"/></g><g transform="translate(-150,-78) scale(1,1)"><path fill="#ffffff" stroke="none" d="M 384 545 C 384 535.6111584 431.6816688 528 490.5 528 C 549.3183312 528 597 535.6111584 597 545 C 597 554.3888416 549.3183312 562 490.5 562 C 431.6816688 562 384 554.3888416 384 545 Z"/></g><g transform="translate(-150,-78) scale(1,1)"><path fill="none" stroke="#000000" d="M 384 545 C 384 535.6111584 431.6816688 528 490.5 528 C 549.3183312 528 597 535.6111584 597 545 C 597 554.3888416 549.3183312 562 490.5 562 C 431.6816688 562 384 554.3888416 384 545 Z" stroke-miterlimit="10"/></g><g transform="translate(-150,-78) scale(1,1)"><g><path fill="none" stroke="none"/><text fill="#000000" stroke="none" font-family="Arial" font-size="13px" font-style="normal" font-weight="bold" text-decoration="none" x="423.6591796875" y="552">Passer une commande</text></g></g><g transform="translate(-150,-78) scale(1,1)"><path fill="#C0C0C0" stroke="none" d="M 383 160 C 383 150.6111584 427.5476624 143 482.5 143 C 537.4523376 143 582 150.6111584 582 160 C 582 169.3888416 537.4523376 177 482.5 177 C 427.5476624 177 383 169.3888416 383 160 Z" opacity="0.2"/></g><g transform="translate(-150,-78) scale(1,1)"><path fill="#ffffff" stroke="none" d="M 376 153 C 376 143.6111584 420.5476624 136 475.5 136 C 530.4523376 136 575 143.6111584 575 153 C 575 162.3888416 530.4523376 170 475.5 170 C 420.5476624 170 376 162.3888416 376 153 Z"/></g><g transform="translate(-150,-78) scale(1,1)"><path fill="none" stroke="#000000" d="M 376 153 C 376 143.6111584 420.5476624 136 475.5 136 C 530.4523376 136 575 143.6111584 575 153 C 575 162.3888416 530.4523376 170 475.5 170 C 420.5476624 170 376 162.3888416 376 153 Z" stroke-miterlimit="10"/></g><g transform="translate(-150,-78) scale(1,1)"><g><path fill="none" stroke="none"/><text fill="#000000" stroke="none" font-family="Arial" font-size="13px" font-style="normal" font-weight="bold" text-decoration="none" x="415.171875" y="160">Consulter les articles</text></g></g><g transform="translate(-150,-78) scale(1,1)"><path fill="#C0C0C0" stroke="none" d="M 487 248 C 487 238.6111584 536.2486719999999 231 597 231 C 657.7513280000001 231 707 238.6111584 707 248 C 707 257.3888416 657.7513280000001 265 597 265 C 536.2486719999999 265 487 257.3888416 487 248 Z" opacity="0.2"/></g><g transform="translate(-150,-78) scale(1,1)"><path fill="#ffffff" stroke="none" d="M 480 241 C 480 231.6111584 529.2486719999999 224 590 224 C 650.7513280000001 224 700 231.6111584 700 241 C 700 250.3888416 650.7513280000001 258 590 258 C 529.2486719999999 258 480 250.3888416 480 241 Z"/></g><g transform="translate(-150,-78) scale(1,1)"><path fill="none" stroke="#000000" d="M 480 241 C 480 231.6111584 529.2486719999999 224 590 224 C 650.7513280000001 224 700 231.6111584 700 241 C 700 250.3888416 650.7513280000001 258 590 258 C 529.2486719999999 258 480 250.3888416 480 241 Z" stroke-miterlimit="10"/></g><g transform="translate(-150,-78) scale(1,1)"><g><path fill="none" stroke="none"/><text fill="#000000" stroke="none" font-family="Arial" font-size="13px" font-style="normal" font-weight="bold" text-decoration="none" x="521.721435546875" y="248">Rechercher des articles</text></g></g><g transform="translate(-150,-78) scale(1,1)"><path fill="#C0C0C0" stroke="none" d="M 447 320 C 447 310.6111584 507.441552 303 582 303 C 656.558448 303 717 310.6111584 717 320 C 717 329.3888416 656.558448 337 582 337 C 507.441552 337 447 329.3888416 447 320 Z" opacity="0.2"/></g><g transform="translate(-150,-78) scale(1,1)"><path fill="#ffffff" stroke="none" d="M 440 313 C 440 303.6111584 500.441552 296 575 296 C 649.558448 296 710 303.6111584 710 313 C 710 322.3888416 649.558448 330 575 330 C 500.441552 330 440 322.3888416 440 313 Z"/></g><g transform="translate(-150,-78) scale(1,1)"><path fill="none" stroke="#000000" d="M 440 313 C 440 303.6111584 500.441552 296 575 296 C 649.558448 296 710 303.6111584 710 313 C 710 322.3888416 649.558448 330 575 330 C 500.441552 330 440 322.3888416 440 313 Z" stroke-miterlimit="10"/></g><g transform="translate(-150,-78) scale(1,1)"><g><path fill="none" stroke="none"/><text fill="#000000" stroke="none" font-family="Arial" font-size="13px" font-style="normal" font-weight="bold" text-decoration="none" x="490.814208984375" y="320">Ajouter des articles au panier</text></g></g><g transform="translate(-150,-78) scale(1,1)"><path fill="#C0C0C0" stroke="none" d="M 447 480 C 447 470.6111584 482.5933584 463 526.5 463 C 570.4066416000001 463 606 470.6111584 606 480 C 606 489.3888416 570.4066416000001 497 526.5 497 C 482.5933584 497 447 489.3888416 447 480 Z" opacity="0.2"/></g><g transform="translate(-150,-78) scale(1,1)"><path fill="#ffffff" stroke="none" d="M 440 473 C 440 463.6111584 475.5933584 456 519.5 456 C 563.4066416000001 456 599 463.6111584 599 473 C 599 482.3888416 563.4066416000001 490 519.5 490 C 475.5933584 490 440 482.3888416 440 473 Z"/></g><g transform="translate(-150,-78) scale(1,1)"><path fill="none" stroke="#000000" d="M 440 473 C 440 463.6111584 475.5933584 456 519.5 456 C 563.4066416000001 456 599 463.6111584 599 473 C 599 482.3888416 563.4066416000001 490 519.5 490 C 475.5933584 490 440 482.3888416 440 473 Z" stroke-miterlimit="10"/></g><g transform="translate(-150,-78) scale(1,1)"><g><path fill="none" stroke="none"/><text fill="#000000" stroke="none" font-family="Arial" font-size="13px" font-style="normal" font-weight="bold" text-decoration="none" x="471.089599609375" y="480">Créer un compte</text></g></g><g transform="translate(-150,-78) scale(1,1)"><path fill="#C0C0C0" stroke="none" d="M 727 384 C 727 374.6111584 772.4430928 367 828.5 367 C 884.5569072 367 930 374.6111584 930 384 C 930 393.3888416 884.5569072 401 828.5 401 C 772.4430928 401 727 393.3888416 727 384 Z" opacity="0.2"/></g><g transform="translate(-150,-78) scale(1,1)"><path fill="#ffffff" stroke="none" d="M 720 377 C 720 367.6111584 765.4430928 360 821.5 360 C 877.5569072 360 923 367.6111584 923 377 C 923 386.3888416 877.5569072 394 821.5 394 C 765.4430928 394 720 386.3888416 720 377 Z"/></g><g transform="translate(-150,-78) scale(1,1)"><path fill="none" stroke="#000000" d="M 720 377 C 720 367.6111584 765.4430928 360 821.5 360 C 877.5569072 360 923 367.6111584 923 377 C 923 386.3888416 877.5569072 394 821.5 394 C 765.4430928 394 720 386.3888416 720 377 Z" stroke-miterlimit="10"/></g><g transform="translate(-150,-78) scale(1,1)"><g><path fill="none" stroke="none"/><text fill="#000000" stroke="none" font-family="Arial" font-size="13px" font-style="normal" font-weight="bold" text-decoration="none" x="759.721435546875" y="384">Suivre les indicateurs</text></g></g><g transform="translate(-150,-78) scale(1,1)"><path fill="#C0C0C0" stroke="none" d="M 695 496 C 695 486.6111584 733.055792 479 780 479 C 826.944208 479 865 486.6111584 865 496 C 865 505.3888416 826.944208 513 780 513 C 733.055792 513 695 505.3888416 695 496 Z" opacity="0.2"/></g><g transform="translate(-150,-78) scale(1,1)"><path fill="#ffffff" stroke="none" d="M 688 489 C 688 479.6111584 726.055792 472 773 472 C 819.944208 472 858 479.6111584 858 489 C 858 498.3888416 819.944208 506 773 506 C 726.055792 506 688 498.3888416 688 489 Z"/></g><g transform="translate(-150,-78) scale(1,1)"><path fill="none" stroke="#000000" d="M 688 489 C 688 479.6111584 726.055792 472 773 472 C 819.944208 472 858 479.6111584 858 489 C 858 498.3888416 819.944208 506 773 506 C 726.055792 506 688 498.3888416 688 489 Z" stroke-miterlimit="10"/></g><g transform="translate(-150,-78) scale(1,1)"><g><path fill="none" stroke="none"/><text fill="#000000" stroke="none" font-family="Arial" font-size="13px" font-style="normal" font-weight="bold" text-decoration="none" x="720.61279296875" y="496">Générer la facture</text></g></g><g transform="translate(-150,-78) scale(1,1)"><path fill="#C0C0C0" stroke="none" d="M 463 664 C 463 654.6111584 491.6537728 647 527 647 C 562.3462272 647 591 654.6111584 591 664 C 591 673.3888416 562.3462272 681 527 681 C 491.6537728 681 463 673.3888416 463 664 Z" opacity="0.2"/></g><g transform="translate(-150,-78) scale(1,1)"><path fill="#ffffff" stroke="none" d="M 456 657 C 456 647.6111584 484.6537728 640 520 640 C 555.3462272 640 584 647.6111584 584 657 C 584 666.3888416 555.3462272 674 520 674 C 484.6537728 674 456 666.3888416 456 657 Z"/></g><g transform="translate(-150,-78) scale(1,1)"><path fill="none" stroke="#000000" d="M 456 657 C 456 647.6111584 484.6537728 640 520 640 C 555.3462272 640 584 647.6111584 584 657 C 584 666.3888416 555.3462272 674 520 674 C 484.6537728 674 456 666.3888416 456 657 Z" stroke-miterlimit="10"/></g><g transform="translate(-150,-78) scale(1,1)"><g><path fill="none" stroke="none"/><text fill="#000000" stroke="none" font-family="Arial" font-size="13px" font-style="normal" font-weight="bold" text-decoration="none" x="481.6982421875" y="664">Se connecter</text></g></g><g transform="translate(-150,-78) scale(1,1)"><path fill="none" stroke="#000000" d="M 217 302 L 511 375" stroke-miterlimit="10"/></g><g transform="translate(-150,-78) scale(1,1)"><path fill="none" stroke="#000000" d="M 217 280 L 439 171" stroke-miterlimit="10"/></g><g transform="translate(-150,-78) scale(1,1)"><path fill="none" stroke="#000000" d="M 217 291 L 479 256" stroke-miterlimit="10"/></g><g transform="translate(-150,-78) scale(1,1)"><path fill="none" stroke="#000000" d="M 217 296 L 439 307" stroke-miterlimit="10"/></g><g transform="translate(-150,-78) scale(1,1)"><path fill="none" stroke="#000000" d="M 217 311 L 486 455" stroke-miterlimit="10"/></g><g transform="translate(-150,-78) scale(1,1)"><path fill="none" stroke="#000000" d="M 211 514 L 383 533" stroke-miterlimit="10"/></g><g transform="translate(-150,-78) scale(1,1)"><path fill="none" stroke="#000000" d="M 211 534 L 440 735" stroke-miterlimit="10"/></g><g transform="translate(-150,-78) scale(1,1)"><path fill="none" stroke="#000000" d="M 1007 407 L 924 394" stroke-miterlimit="10"/></g><g transform="translate(-150,-78) scale(1,1)"><path fill="none" stroke="#000000" d="M 499 171 L 566 223" stroke-miterlimit="10" stroke-dasharray="3"/></g><g transform="translate(-150,-78) scale(1,1)"><path fill="none" stroke="#000000" d="M 555.390665810666 220.0944831683455 L 566 223 L 560.5525785053621 213.44355719633305" stroke-miterlimit="10"/></g><g transform="translate(-150,-78) scale(1,1)"><g><path fill="none" stroke="none"/><text fill="#000000" stroke="none" font-family="Arial" font-size="13px" font-style="normal" font-weight="normal" text-decoration="none" x="528.5" y="195.5">«extend»</text></g></g><g transform="translate(-150,-78) scale(1,1)"><path fill="#C0C0C0" stroke="none" d="M 767 600 C 767 590.6111584 789.6096176 583 817.5 583 C 845.3903824 583 868 590.6111584 868 600 C 868 609.3888416 845.3903824 617 817.5 617 C 789.6096176 617 767 609.3888416 767 600 Z" opacity="0.2"/></g><g transform="translate(-150,-78) scale(1,1)"><path fill="#ffffff" stroke="none" d="M 760 593 C 760 583.6111584 782.6096176 576 810.5 576 C 838.3903824 576 861 583.6111584 861 593 C 861 602.3888416 838.3903824 610 810.5 610 C 782.6096176 610 760 602.3888416 760 593 Z"/></g><g transform="translate(-150,-78) scale(1,1)"><path fill="none" stroke="#000000" d="M 760 593 C 760 583.6111584 782.6096176 576 810.5 576 C 838.3903824 576 861 583.6111584 861 593 C 861 602.3888416 838.3903824 610 810.5 610 C 782.6096176 610 760 602.3888416 760 593 Z" stroke-miterlimit="10"/></g><g transform="translate(-150,-78) scale(1,1)"><g><path fill="none" stroke="none"/><text fill="#000000" stroke="none" font-family="Arial" font-size="13px" font-style="normal" font-weight="bold" text-decoration="none" x="793.52001953125" y="600">Payer</text></g></g><g transform="translate(-150,-78) scale(1,1)"><path fill="none" stroke="#000000" d="M 598 561 L 759 585" stroke-miterlimit="10" stroke-dasharray="3"/></g><g transform="translate(-150,-78) scale(1,1)"><path fill="none" stroke="#000000" d="M 748.327743926711 587.6651360764782 L 759 585 L 749.5690395675554 579.3381111524807" stroke-miterlimit="10"/></g><g transform="translate(-150,-78) scale(1,1)"><g><path fill="none" stroke="none"/><text fill="#000000" stroke="none" font-family="Arial" font-size="13px" font-style="normal" font-weight="normal" text-decoration="none" x="654.5" y="549.5">«include»</text></g></g><g transform="translate(-150,-78) scale(1,1)"><path fill="#C0C0C0" stroke="none" d="M 706 752 C 706 742.6111584 753.6816688 735 812.5 735 C 871.3183312 735 919 742.6111584 919 752 C 919 761.3888416 871.3183312 769 812.5 769 C 753.6816688 769 706 761.3888416 706 752 Z" opacity="0.2"/></g><g transform="translate(-150,-78) scale(1,1)"><path fill="#ffffff" stroke="none" d="M 699 745 C 699 735.6111584 746.6816688 728 805.5 728 C 864.3183312 728 912 735.6111584 912 745 C 912 754.3888416 864.3183312 762 805.5 762 C 746.6816688 762 699 754.3888416 699 745 Z"/></g><g transform="translate(-150,-78) scale(1,1)"><path fill="none" stroke="#000000" d="M 699 745 C 699 735.6111584 746.6816688 728 805.5 728 C 864.3183312 728 912 735.6111584 912 745 C 912 754.3888416 864.3183312 762 805.5 762 C 746.6816688 762 699 754.3888416 699 745 Z" stroke-miterlimit="10"/></g><g transform="translate(-150,-78) scale(1,1)"><g><path fill="none" stroke="none"/><text fill="#000000" stroke="none" font-family="Arial" font-size="13px" font-style="normal" font-weight="bold" text-decoration="none" x="740.471435546875" y="752">Utiliser un code promo</text></g></g><g transform="translate(-150,-78) scale(1,1)"><path fill="none" stroke="#000000" d="M 806 727 L 809 611" stroke-miterlimit="10" stroke-dasharray="3"/></g><g transform="translate(-150,-78) scale(1,1)"><path fill="none" stroke="#000000" d="M 812.9453707545938 621.268108375392 L 809 611 L 804.5291493526703 621.0504474770664" stroke-miterlimit="10"/></g><g transform="translate(-150,-78) scale(1,1)"><g><path fill="none" stroke="none"/><text fill="#000000" stroke="none" font-family="Arial" font-size="13px" font-style="normal" font-weight="normal" text-decoration="none" x="750.5" y="673.5">«extend»</text></g></g><g transform="translate(-150,-78) scale(1,1)"><path fill="#C0C0C0" stroke="none" d="M 759 280 C 759 270.6111584 797.2796496 263 844.5 263 C 891.7203504 263 930 270.6111584 930 280 C 930 289.3888416 891.7203504 297 844.5 297 C 797.2796496 297 759 289.3888416 759 280 Z" opacity="0.2"/></g><g transform="translate(-150,-78) scale(1,1)"><path fill="#ffffff" stroke="none" d="M 752 273 C 752 263.6111584 790.2796496 256 837.5 256 C 884.7203504 256 923 263.6111584 923 273 C 923 282.3888416 884.7203504 290 837.5 290 C 790.2796496 290 752 282.3888416 752 273 Z"/></g><g transform="translate(-150,-78) scale(1,1)"><path fill="none" stroke="#000000" d="M 752 273 C 752 263.6111584 790.2796496 256 837.5 256 C 884.7203504 256 923 263.6111584 923 273 C 923 282.3888416 884.7203504 290 837.5 290 C 790.2796496 290 752 282.3888416 752 273 Z" stroke-miterlimit="10"/></g><g transform="translate(-150,-78) scale(1,1)"><g><path fill="none" stroke="none"/><text fill="#000000" stroke="none" font-family="Arial" font-size="13px" font-style="normal" font-weight="bold" text-decoration="none" x="788.37548828125" y="280">Gérer les articles</text></g></g><g transform="translate(-150,-78) scale(1,1)"><path fill="none" stroke="#000000" d="M 1007 382 L 865 291" stroke-miterlimit="10"/></g><g transform="translate(-150,-78) scale(1,1)"><path fill="none" stroke="#000000" d="M 211 522 L 479 639" stroke-miterlimit="10"/></g><g transform="translate(-150,-78) scale(1,1)"><path fill="none" stroke="#000000" d="M 581 527 L 687 506" stroke-miterlimit="10" stroke-dasharray="3"/></g><g transform="translate(-150,-78) scale(1,1)"><path fill="none" stroke="#000000" d="M 677.8491382491245 512.1042386270824 L 687 506 L 676.2130150750645 503.84571212944616" stroke-miterlimit="10"/></g><g transform="translate(-150,-78) scale(1,1)"><g><path fill="none" stroke="none"/><text fill="#000000" stroke="none" font-family="Arial" font-size="13px" font-style="normal" font-weight="normal" text-decoration="none" x="600.5" y="492.5">«include»</text></g></g></g></svg>